<?xml version="1.0" encoding="utf-8"?>
<!-- Generator: Adobe Illustrator 25.4.1, SVG Export Plug-In . SVG Version: 6.00 Build 0)  -->
<svg version="1.1" id="Capa_1" xmlns="http://www.w3.org/2000/svg" xmlns:xlink="http://www.w3.org/1999/xlink" x="0px" y="0px"
	 viewBox="0 0 1920 1080" style="enable-background:new 0 0 1920 1080;" xml:space="preserve">
<style type="text/css">
	.st0{fill:#FFFFFF;}
</style>
<g transform="translate(0.000000,807.000000) scale(0.100000,-0.100000)">
	<path class="st0" d="M-16719.2,8058c-946.2-43.4-1909.9-333.6-2711.8-817.3c-1300-785.1-2196.9-2041.3-2466.5-3455.8
		c-66.7-346.2-83-527-82.5-928.7s17.1-581.2,84.5-929.9c135-706.4,426-1375.2,860.7-1978c336-468.6,782.9-908.6,1266.6-1250.5
		c381-268.3,861.9-521.1,1305.7-686c983.6-363.4,2077.8-456.7,3108.7-263.4c488.8,92.1,889.8,217.7,1327.8,415.7
		c624.1,282.1,1119.4,618.3,1600.9,1085c1476,1431,1947.5,3527.7,1215.6,5398.6c-484.7,1242.1-1456.7,2264.2-2717.1,2858.5
		c-263,123.8-448,197.2-726.1,284.8c-517.8,162.3-978,243.3-1533.9,268.6c-154.7,6.3-286.2,11.4-294.4,10.1
		C-16487.8,8069.8-16596,8063.2-16719.2,8058z M-12608.8,5863.2c24.7-15.5,60.3-49,76.8-72.3c60.3-83.9,33.1-224.7-53.1-277.7
		l-31.5-19.4l7.9-979l7.9-979l225.9-6.3l225.9-6.3l4.9-725.9l3.5-725.9l-153.4-4l-153.4-4l-24.5-103.3
		c-54.5-233.8-116-400.5-230.7-621.4c-150.3-290.7-330.8-526-575.7-748.3c-284.5-261.1-525.4-411.2-914.1-571.7
		c-480.4-198-1119.8-256.7-1670.4-152.5c-172.6,33.4-419.1,101.7-534.2,149.4c-220.6,92.8-427.4,199.8-582.3,304.3
		c-271.3,181.9-579.8,491.6-763.5,764c-145.4,214.3-296.4,552.5-354.1,787.6c-9.6,38.7-24.8,96.8-33,129.1l-16.5,58.1l-160.2,3.7
		l-160.2,3.7l2,725.9l3.3,725.9l243.7,4.1l243.7,2.8l67,133.1c151.7,301.1,310.3,510.4,572.9,758.6
		c458.3,433.1,981.1,676.3,1664.3,777.7c162.9,23.4,627.1,19.9,792.8-5.8c421.8-66.8,762.9-185.3,1097.2-378.8
		c153.5-87.7,189.1-112.2,342.6-236.1c197.4-158.7,360.5-325.2,518.2-533l78.2-100.7l1.9,777.5c3.3,703.9,0.5,778.8-18.7,793
		c-12.3,7.7-38.4,37.4-59,64.5c-57.6,80-45.4,193.7,27.1,255.8C-12808.8,5899.2-12686.9,5913.5-12608.8,5863.2z M-19279.4,5166.5
		c27.4-11.6,61.7-42.6,76.8-67.1c26.1-42.6,27.5-74.9,37.5-529.5c5.8-266.1,20.1-900.2,33-1407.8c11.5-507.6,28.7-1193.4,35.9-1524
		c8.6-330.6,20.1-824,27.2-1097.8c14.3-555.4,15.7-548.9-76-607.1l-50.6-32.3l-573.7-4.4c-562.8-4.4-575.1-3.1-635.4,24
		c-109.6,50.3-108.2,36.1-126.8,734.8c-29.9,1084.9-58.3,2009.7-86.7,2931.8c-8.5,266.1-21.2,644.5-26.9,839.5
		c-14.2,467.5-18.3,458.5,247.3,529.8c80.8,20.7,169.8,44.1,198.5,50.5c54.8,13,73.9,18.1,277.9,70c219,57,290.2,75.2,383.3,101.1
		C-19437,5205.1-19353.4,5201.3-19279.4,5166.5z"/>
	<path class="st0" d="M-15586.4,3902.6c-609.2-96.1-1090.8-515-1234-1076.9c-35.5-136.9-33.7-497.3,2-623.8c77-272.5,184-463.5,364.9-644.2
		c283.8-283.9,681-446.3,1095.9-446c413.5,0.4,807.7,160.8,1095,447.8c373.4,371,496.1,921.3,317.5,1413.3
		c-163.4,445.5-558.2,780.9-1059.5,903.2C-15131.7,3908.2-15457.7,3922.1-15586.4,3902.6z"/>
</g>
<g>
	<path class="st0" d="M-548.2,285l-213.2,543.3h-135.8L-684,285H-548.2z"/>
	<path class="st0" d="M-542.3,486.7h135.1l-133.7,341.6h-135.8L-542.3,486.7z M-158.3,379l-176.4,449.3h-135.1l152.1-387.8
		c0.7-1.9,1.2-3.9,1.6-6c0.3-2.1,0.5-4.1,0.5-6c0-7.8-2.2-13.7-6.4-17.9c-4.3-4.2-10.5-6.2-18.6-6.2h-169.1l46.2-119.4h246.2
		c20.8,0,37.1,5.4,48.9,16.1c11.8,10.7,17.7,25.5,17.7,44.2c0,4.6-0.6,9.7-1.9,15.5C-153.9,366.5-155.8,372.6-158.3,379z"/>
	<path class="st0" d="M91.3,486.7L-42.4,828.3h-136.1l133.7-341.6H91.3z M230.5,404.3h-363.2L-85.8,285h363.2L230.5,404.3z"/>
	<path class="st0" d="M100.7,828.3l134.4-341.6h255.2l-46.9,119.4H323.9l-40.6,102.9h119.4l-46.9,119.4H100.7z M569.1,285
		l-46.9,119.4H267L313.9,285H569.1z"/>
	<path class="st0" d="M722.9,638.2c0.7-1.6,1.2-3.3,1.6-5.2c0.3-1.9,0.5-3.7,0.5-5.6c0-6.9-2.4-12.9-7.1-17.9
		c-4.8-4.9-10.7-7.4-17.9-7.4h-34l-90.3,226.2H439.9l133-337.5h209.7l19.1-51.9c0.7-1.9,1.2-3.8,1.6-5.8c0.3-2,0.5-4.1,0.5-6.2
		c0-7-2.3-12.7-6.8-17.3c-4.5-4.6-10.5-6.8-17.9-6.8H606.9L653.1,285h246.2c20.8,0,37.1,5.4,48.9,16.1
		c11.8,10.7,17.7,25.5,17.7,44.2c0,4.8-0.6,10-1.9,15.7s-3.2,11.7-5.7,18.1l-71.9,184.5c-6.2,15.5-14,26.5-23.3,32.9
		c-9.3,6.4-22.1,9.7-38.5,9.7h-4.5c8.1,5.9,14.2,12.9,18.2,21.1c4,8.2,6.1,17.3,6.1,27.5c0,4.8-0.7,10.2-2.1,16.3
		c-1.4,6-3.3,12.1-5.9,18.3l-54.5,139H649.6L722.9,638.2z"/>
	<path class="st0" d="M1002.4,486.7h135.1l-133.7,341.6H868L1002.4,486.7z M1386.4,379L1210,828.3h-135.1L1227,440.5
		c0.7-1.9,1.2-3.9,1.6-6c0.3-2.1,0.5-4.1,0.5-6c0-7.8-2.2-13.7-6.4-17.9c-4.3-4.2-10.5-6.2-18.6-6.2H1035l46.2-119.4h246.2
		c20.8,0,37.1,5.4,48.9,16.1c11.8,10.7,17.7,25.5,17.7,44.2c0,4.6-0.6,9.7-1.9,15.5C1390.8,366.5,1388.9,372.6,1386.4,379z"/>
	<path class="st0" d="M1534.3,285h223.3c16.2,0,29,4.9,38.4,14.9c9.4,9.9,14.1,23.4,14.1,40.6c0,4.6-0.2,8.8-0.7,12.9
		c-0.5,4-1.2,7.9-2.1,11.7l-116.7,463.3h-447.9l244.8-341.6h139.9l-145.8,222.2h101l74.6-276.4c0-0.3,0.1-0.7,0.3-1.2
		c0.7-3.5,1-6.4,1-8.8c0-5.4-1.7-9.7-5.2-13.1c-3.5-3.3-8.1-5-13.9-5h-150.7L1534.3,285z"/>
	<path class="st0" d="M2297.1,285l-181.9,464.1c-11.6,29.7-26,50.3-43.4,61.9c-17.4,11.5-44.7,17.3-81.9,17.3h-152.1
		c-20.6,0-36.8-5.3-48.8-15.9c-11.9-10.6-17.9-25-17.9-43.2c0-5.4,0.6-10.9,1.9-16.7c1.3-5.8,3.2-11.7,5.7-17.9L1955.1,285h135.8
		l-150,383.7c-1.2,2.7-2,5.4-2.6,8.2c-0.6,2.8-0.9,5.8-0.9,9.1c0,7.5,2.5,13.2,7.5,17.1c5,3.9,12.2,5.8,21.7,5.8
		c9.5,0,17.8-2.9,25-8.6c7.2-5.8,13.1-14.4,17.7-25.9L2162,285H2297.1z"/>
	<path class="st0" d="M2509.9,486.7l-133.7,341.6h-136.1l133.7-341.6H2509.9z M2649.1,404.3h-363.2l46.9-119.4H2696L2649.1,404.3z"
		/>
</g>
</svg>
