<?xml version="1.0" standalone="no"?>
<!DOCTYPE svg PUBLIC "-//W3C//DTD SVG 20010904//EN"
 "http://www.w3.org/TR/2001/REC-SVG-20010904/DTD/svg10.dtd">
<svg version="1.0" xmlns="http://www.w3.org/2000/svg"
 width="813.000000pt" height="813.000000pt" viewBox="0 0 813.000000 813.000000"
 preserveAspectRatio="xMidYMid meet">
<metadata>
Created by potrace 1.14, written by Peter Selinger 2001-2017
</metadata>
<g transform="translate(0.000000,813.000000) scale(0.100000,-0.100000)"
fill="#000000" stroke="none">
<path d="M3927 8094 c-1 -1 -54 -5 -117 -8 -116 -7 -161 -11 -235 -22 -22 -3
-56 -7 -75 -9 -66 -6 -275 -46 -412 -80 -125 -31 -393 -113 -443 -135 -11 -5
-45 -19 -75 -30 -230 -91 -505 -232 -725 -375 -329 -212 -697 -543 -932 -837
-149 -188 -284 -385 -390 -573 -52 -91 -161 -312 -163 -330 -1 -5 -5 -14 -10
-20 -25 -30 -141 -350 -189 -522 -35 -125 -93 -389 -106 -483 -33 -246 -40
-346 -40 -605 0 -300 17 -488 66 -750 34 -182 100 -434 138 -530 5 -11 30 -78
56 -150 71 -193 226 -515 296 -617 11 -14 19 -28 19 -31 0 -5 101 -157 177
-267 119 -173 326 -408 524 -595 321 -304 751 -586 1149 -754 41 -18 84 -36
95 -41 61 -29 312 -115 425 -146 132 -37 361 -87 455 -99 28 -4 52 -9 55 -10
3 -2 37 -6 75 -10 39 -4 79 -9 90 -11 121 -25 715 -24 879 1 11 2 47 6 80 10
58 7 90 11 136 20 14 3 43 8 65 11 71 10 216 44 367 85 445 120 888 331 1268
602 98 70 237 179 284 222 6 6 27 23 46 39 117 95 405 398 495 521 16 22 32
42 35 45 15 12 129 174 195 275 260 403 441 832 546 1298 26 115 26 116 33
163 4 22 8 46 11 54 2 8 6 40 10 70 3 30 7 66 9 80 22 131 29 264 29 515 1
305 -15 486 -64 745 -36 192 -123 505 -179 645 -4 11 -25 63 -45 115 -37 93
-170 370 -221 460 -99 173 -237 378 -353 525 -181 228 -473 519 -680 675 -18
14 -38 30 -44 35 -22 19 -151 109 -237 166 -276 181 -609 343 -930 452 -203
70 -528 146 -727 171 -38 5 -120 16 -161 21 -93 11 -546 27 -555 19z"/>
</g>
</svg>
